<svg width="20" height="20" viewBox="0 0 19 20" fill="none" xmlns="http://www.w3.org/2000/svg">
<path fill-rule="evenodd" clip-rule="evenodd" d="M3.43244 5.46994L2.0028 5.74335C2.44085 4.55046 3.8901 4.00364 3.8901 4.00364C5.08002 2.45307 7.31383 2.04296 7.31383 2.04296C7.02398 1.44557 5.64664 0.72085 5.64664 0.72085C6.52273 0.752685 7.71919 1.77704 9.21856 1.95681C10.7179 1.77704 11.9144 0.752685 12.7905 0.72085C12.7905 0.72085 11.411 1.44557 11.1233 2.04296C11.1233 2.04296 13.3571 2.45307 14.547 4.00364C14.547 4.00364 15.9963 4.55046 16.4343 5.74335L15.0047 5.46994C15.8982 6.73774 17.84 11.382 16.3537 12.6329C16.3537 12.6329 16.4343 12.1722 15.5212 11.2865C15.5212 11.2865 16.1554 13.5206 14.17 16.352C14.17 16.352 14.3487 15.9419 14.2506 15.2266C14.2506 15.2266 12.7011 19.2172 9.21856 20C6.62952 19.558 5.33718 17.9382 5.33718 17.9382L5.73599 18.8408C2.43431 15.8408 2.46918 14.6797 2.48008 14.2884L2.42123 16.2827C-0.662517 12.4007 0.13076 9.32016 1.56694 6.93812C0.0806358 7.15722 0.00217933 7.27707 0 7.29393C0.0414073 5.55421 1.88512 4.48117 1.88512 4.48117C0.313823 0.835084 3.00529 -1.08253 7.23755 0.638452C8.67591 1.22273 9.76121 1.22273 11.1996 0.638452C15.4318 -1.08253 18.1233 0.835084 16.552 4.48117C16.552 4.48117 18.3957 5.55421 18.4371 7.29393C18.4349 7.27707 18.3565 7.15722 16.8702 6.93812C18.3064 9.32016 19.0996 12.4007 16.0159 16.2827L15.957 14.2884C15.9679 14.6797 16.0028 15.8408 12.7011 18.8408L13.1 17.9382C13.1 17.9382 11.8076 19.558 9.21856 20C5.736 19.2172 4.18649 15.2266 4.18649 15.2266C4.08842 15.9419 4.26713 16.352 4.26713 16.352C2.28176 13.5206 2.91594 11.2865 2.91594 11.2865C2.0028 12.1722 2.08344 12.6329 2.08344 12.6329C0.597136 11.382 2.53892 6.73774 3.43244 5.46994ZM13.7494 2.8482C14.3051 2.92498 15.118 3.4793 15.118 3.4793C14.3923 4.04671 15.3882 4.10102 15.8132 4.18716C16.7264 1.62909 15.118 0.964297 15.118 0.964297C13.939 0.617853 12.8973 1.40625 12.4963 1.76018C11.5483 2.59165 14.51 1.74707 15.2575 2.49052C14.8107 2.31075 14.4642 2.48303 14.4642 2.48303C14.9197 2.70401 15.1376 3.02798 15.1376 3.02798C14.7519 2.78079 13.7494 2.8482 13.7494 2.8482ZM4.68774 2.8482C4.13201 2.92498 3.31912 3.4793 3.31912 3.4793C4.04484 4.04671 3.0467 4.10102 2.62391 4.18716C1.71077 1.62909 3.31912 0.964297 3.31912 0.964297C4.49814 0.617853 5.53986 1.40625 5.94085 1.76018C6.88886 2.59165 3.92715 1.74707 3.17964 2.49052C3.6264 2.31075 3.97292 2.48303 3.97292 2.48303C3.51744 2.70401 3.29951 3.02798 3.29951 3.02798C3.68525 2.78079 4.68774 2.8482 4.68774 2.8482Z" fill="#0C0C0E"/>
<path d="M2.0028 5.74335L3.43244 5.46994C2.53892 6.73774 0.597136 11.382 2.08344 12.6329C2.08344 12.6329 2.0028 12.1722 2.91594 11.2865C2.91594 11.2865 2.28176 13.5206 4.26713 16.352C4.26713 16.352 4.08842 15.9419 4.18649 15.2266C4.18649 15.2266 5.736 19.2172 9.21856 20C12.7011 19.2172 14.2506 15.2266 14.2506 15.2266C14.3487 15.9419 14.17 16.352 14.17 16.352C16.1554 13.5206 15.5212 11.2865 15.5212 11.2865C16.4343 12.1722 16.3537 12.6329 16.3537 12.6329C17.84 11.382 15.8982 6.73774 15.0047 5.46994L16.4343 5.74335C15.9963 4.55046 14.547 4.00364 14.547 4.00364C13.3571 2.45307 11.1233 2.04296 11.1233 2.04296C11.411 1.44557 12.7905 0.72085 12.7905 0.72085C11.9144 0.752685 10.7179 1.77704 9.21856 1.95681C7.71919 1.77704 6.52273 0.752685 5.64664 0.72085C5.64664 0.72085 7.02398 1.44557 7.31383 2.04296C7.31383 2.04296 5.08002 2.45307 3.8901 4.00364C3.8901 4.00364 2.44085 4.55046 2.0028 5.74335Z" fill="white"/>
<path d="M13.7494 2.8482C14.3051 2.92498 15.118 3.4793 15.118 3.4793C14.3923 4.04671 15.3882 4.10102 15.8132 4.18716C16.7264 1.62909 15.118 0.964297 15.118 0.964297C13.939 0.617853 12.8973 1.40625 12.4963 1.76018C11.5483 2.59165 14.51 1.74707 15.2575 2.49052C14.8107 2.31075 14.4642 2.48303 14.4642 2.48303C14.9197 2.70401 15.1376 3.02798 15.1376 3.02798C14.7519 2.78079 13.7494 2.8482 13.7494 2.8482Z" fill="white"/>
<path d="M4.68774 2.8482C4.13201 2.92498 3.31912 3.4793 3.31912 3.4793C4.04484 4.04671 3.0467 4.10102 2.62391 4.18716C1.71077 1.62909 3.31912 0.964297 3.31912 0.964297C4.49814 0.617853 5.53986 1.40625 5.94085 1.76018C6.88886 2.59165 3.92715 1.74707 3.17964 2.49052C3.6264 2.31075 3.97292 2.48303 3.97292 2.48303C3.51744 2.70401 3.29951 3.02798 3.29951 3.02798C3.68525 2.78079 4.68774 2.8482 4.68774 2.8482Z" fill="white"/>
<path fill-rule="evenodd" clip-rule="evenodd" d="M5.4616 5.30313C5.11727 5.29189 4.74896 5.31436 4.36976 5.37616C4.56372 4.69451 5.28507 3.86117 5.77324 3.35742C5.77324 3.35742 4.48962 3.82559 3.90338 4.89863L4.16272 4.7975C3.6484 5.81249 3.22779 7.93423 3.70506 9.04285L3.80531 8.61775C3.80531 8.61775 3.91646 9.1009 4.36976 9.71889L4.36758 9.71514C3.52636 10.5822 4.89498 11.2732 4.57243 12.6534C4.41334 13.3275 4.34578 14.438 5.18483 15.4193C4.92984 13.1346 6.46627 13.2938 6.41833 12.1571C6.27231 11.8799 6.1154 11.2002 6.0522 10.8462C5.99553 10.629 5.96938 10.4211 5.96721 10.2208C4.02542 8.93985 3.16241 6.48291 5.4616 5.30313Z" fill="#0C0C0E"/>
<path fill-rule="evenodd" clip-rule="evenodd" d="M5.46153 5.30322C4.70531 6.69836 6.57299 6.48113 7.09821 7.1141C7.50792 7.60848 5.9606 8.64782 5.96714 10.2209C5.96932 10.4212 5.99547 10.6291 6.05213 10.8463C5.82548 9.55419 6.96091 8.61598 7.52536 7.58601C8.25326 6.25641 7.13526 5.36128 5.46153 5.30322Z" fill="#0C0C0E"/>
<path fill-rule="evenodd" clip-rule="evenodd" d="M12.9759 5.30313C13.3202 5.29189 13.6864 5.31436 14.0677 5.37616C13.8738 4.69451 13.1524 3.86117 12.6643 3.35742C12.6643 3.35742 13.9479 3.82559 14.5341 4.89863L14.2748 4.7975C14.7891 5.81249 15.2097 7.93423 14.7324 9.04285L14.6322 8.61775C14.6322 8.61775 14.521 9.1009 14.0677 9.71889L14.0699 9.71514C14.9111 10.5822 13.5425 11.2732 13.8651 12.6534C14.0241 13.3275 14.0917 14.438 13.2527 15.4193C13.5077 13.1346 11.9712 13.2938 12.0192 12.1571C12.1652 11.8799 12.3221 11.2002 12.3853 10.8462C12.442 10.629 12.4681 10.4211 12.4703 10.2208C14.4121 8.93985 15.2751 6.48291 12.9759 5.30313Z" fill="#0C0C0E"/>
<path fill-rule="evenodd" clip-rule="evenodd" d="M12.9757 5.30322C13.732 6.69836 11.8643 6.48113 11.3391 7.1141C10.9293 7.60848 12.4767 8.64782 12.4701 10.2209C12.4679 10.4212 12.4418 10.6291 12.3851 10.8463C12.6118 9.55419 11.4763 8.61598 10.9119 7.58601C10.184 6.25641 11.302 5.36128 12.9757 5.30322Z" fill="#0C0C0E"/>
<path fill-rule="evenodd" clip-rule="evenodd" d="M9.21844 10.5019C9.83955 10.1012 9.63252 9.55995 11.0513 9.85396C11.2234 9.38954 11.1384 8.85208 11.0207 8.45508C11.6004 9.17231 11.6811 10.206 10.7156 10.4083C9.52791 10.5525 9.89621 10.9532 9.21844 11.3128C8.54067 10.9532 8.90898 10.5525 7.72124 10.4083C6.7558 10.206 6.83643 9.17231 7.41396 8.45508C7.29845 8.85208 7.21346 9.38954 7.38563 9.85396C8.80437 9.55995 8.59733 10.1012 9.21844 10.5019Z" fill="#0C0C0E"/>
<path fill-rule="evenodd" clip-rule="evenodd" d="M12.4658 13.0975C12.4658 13.0975 12.6706 14.5394 10.9032 15.4945L10.8945 15.3241C10.8945 15.3241 10.2123 16.1687 9.21855 16.5432C8.22478 16.1687 7.54265 15.3241 7.54265 15.3241L7.53393 15.4945C5.76649 14.5394 5.96917 13.0975 5.96917 13.0975C6.0825 12.9833 5.77739 12.5731 5.85584 12.4477C5.95827 12.2866 6.42683 12.4009 6.41811 12.1574C6.5358 12.3821 6.70796 12.6106 6.96077 12.7848C6.96077 12.7848 8.61924 12.6069 9.21855 11.7866C9.81787 12.6069 11.4763 12.7848 11.4763 12.7848C11.7291 12.6106 11.9013 12.3821 12.019 12.1574C12.0103 12.4009 12.4788 12.2866 12.5813 12.4477C12.6597 12.5731 12.3546 12.9833 12.4658 13.0975ZM9.21855 15.7511C9.68711 15.5807 10.293 14.3391 10.293 14.3391C10.3889 14.6069 10.2145 15.2436 10.2145 15.2436C10.8204 14.914 10.9293 14.2623 10.9293 14.2623C10.9337 14.4627 10.7898 14.8765 10.7898 14.8765C11.4981 14.6331 11.7052 13.7829 11.594 13.193C11.3347 12.9664 10.5327 12.8466 10.5327 12.8466C10.0707 12.7398 9.21855 12.3952 9.21855 12.3952C9.21855 12.3952 8.36643 12.7398 7.90441 12.8466C7.90441 12.8466 7.10242 12.9664 6.84308 13.193C6.73194 13.7829 6.93679 14.6331 7.64725 14.8765C7.64725 14.8765 7.50342 14.4627 7.50778 14.2623C7.50778 14.2623 7.61674 14.914 8.2226 15.2436C8.2226 15.2436 8.04825 14.6069 8.14414 14.3391C8.14414 14.3391 8.74999 15.5807 9.21855 15.7511Z" fill="#0C0C0E"/>
<path fill-rule="evenodd" clip-rule="evenodd" d="M9.21869 3.92693C9.21869 3.92693 9.99453 3.6966 10.5306 3.56738C9.51072 4.08424 9.45188 4.72844 9.21869 5.59736C8.98551 4.72844 8.92666 4.08424 7.90674 3.56738C8.44285 3.6966 9.21869 3.92693 9.21869 3.92693Z" fill="#0C0C0E"/>
</svg>
