<svg width="36" height="36" viewBox="0 0 36 36" fill="none" xmlns="http://www.w3.org/2000/svg">
<g filter="url(#filter0_d_185_308)">
<g clip-path="url(#clip0_185_308)">
<rect x="2" y="1" width="32" height="32" rx="8" fill="url(#paint0_linear_185_308)"/>
<g clip-path="url(#clip1_185_308)">
<rect x="2.0459" y="1.05713" width="5.31808" height="5.31429" stroke="#EAECF0" stroke-width="0.1"/>
<rect x="7.36377" y="1.05713" width="5.31808" height="5.31429" stroke="#EAECF0" stroke-width="0.1"/>
<rect x="12.6821" y="1.05713" width="5.31808" height="5.31429" stroke="#EAECF0" stroke-width="0.1"/>
<rect x="18" y="1.05713" width="5.31808" height="5.31429" stroke="#EAECF0" stroke-width="0.1"/>
<rect x="23.3179" y="1.05713" width="5.31808" height="5.31429" stroke="#EAECF0" stroke-width="0.1"/>
<rect x="28.6362" y="1.05713" width="5.31808" height="5.31429" stroke="#EAECF0" stroke-width="0.1"/>
<rect x="2.0459" y="6.37158" width="5.31808" height="5.31429" stroke="#EAECF0" stroke-width="0.1"/>
<rect x="7.36377" y="6.37158" width="5.31808" height="5.31429" stroke="#EAECF0" stroke-width="0.1"/>
<rect x="12.6821" y="6.37158" width="5.31808" height="5.31429" stroke="#EAECF0" stroke-width="0.1"/>
<rect x="18" y="6.37158" width="5.31808" height="5.31429" stroke="#EAECF0" stroke-width="0.1"/>
<rect x="23.3179" y="6.37158" width="5.31808" height="5.31429" stroke="#EAECF0" stroke-width="0.1"/>
<rect x="28.6362" y="6.37158" width="5.31808" height="5.31429" stroke="#EAECF0" stroke-width="0.1"/>
<rect x="2.0459" y="11.6855" width="5.31808" height="5.31429" stroke="#EAECF0" stroke-width="0.1"/>
<rect x="7.36377" y="11.6855" width="5.31808" height="5.31429" stroke="#EAECF0" stroke-width="0.1"/>
<rect x="12.6821" y="11.6855" width="5.31808" height="5.31429" stroke="#EAECF0" stroke-width="0.1"/>
<rect x="18" y="11.6855" width="5.31808" height="5.31429" stroke="#EAECF0" stroke-width="0.1"/>
<rect x="23.3179" y="11.6855" width="5.31808" height="5.31429" stroke="#EAECF0" stroke-width="0.1"/>
<rect x="28.6362" y="11.6855" width="5.31808" height="5.31429" stroke="#EAECF0" stroke-width="0.1"/>
<rect x="2.0459" y="17" width="5.31808" height="5.31429" stroke="#EAECF0" stroke-width="0.1"/>
<rect x="7.36377" y="17" width="5.31808" height="5.31429" stroke="#EAECF0" stroke-width="0.1"/>
<rect x="12.6821" y="17" width="5.31808" height="5.31429" stroke="#EAECF0" stroke-width="0.1"/>
<rect x="18" y="17" width="5.31808" height="5.31429" stroke="#EAECF0" stroke-width="0.1"/>
<rect x="23.3179" y="17" width="5.31808" height="5.31429" stroke="#EAECF0" stroke-width="0.1"/>
<rect x="28.6362" y="17" width="5.31808" height="5.31429" stroke="#EAECF0" stroke-width="0.1"/>
<rect x="2.0459" y="22.3145" width="5.31808" height="5.31429" stroke="#EAECF0" stroke-width="0.1"/>
<rect x="7.36377" y="22.3145" width="5.31808" height="5.31429" stroke="#EAECF0" stroke-width="0.1"/>
<rect x="12.6821" y="22.3145" width="5.31808" height="5.31429" stroke="#EAECF0" stroke-width="0.1"/>
<rect x="18" y="22.3145" width="5.31808" height="5.31429" stroke="#EAECF0" stroke-width="0.1"/>
<rect x="23.3179" y="22.3145" width="5.31808" height="5.31429" stroke="#EAECF0" stroke-width="0.1"/>
<rect x="28.6362" y="22.3145" width="5.31808" height="5.31429" stroke="#EAECF0" stroke-width="0.1"/>
<rect x="2.0459" y="27.6284" width="5.31808" height="5.31429" stroke="#EAECF0" stroke-width="0.1"/>
<rect x="7.36377" y="27.6284" width="5.31808" height="5.31429" stroke="#EAECF0" stroke-width="0.1"/>
<rect x="12.6821" y="27.6284" width="5.31808" height="5.31429" stroke="#EAECF0" stroke-width="0.1"/>
<rect x="18" y="27.6284" width="5.31808" height="5.31429" stroke="#EAECF0" stroke-width="0.1"/>
<rect x="23.3179" y="27.6284" width="5.31808" height="5.31429" stroke="#EAECF0" stroke-width="0.1"/>
<rect x="28.6362" y="27.6284" width="5.31808" height="5.31429" stroke="#EAECF0" stroke-width="0.1"/>
<rect x="4.28564" y="3.28564" width="27.4482" height="27.4286" rx="13.7143" stroke="#EAECF0" stroke-width="0.1"/>
</g>
<path fill-rule="evenodd" clip-rule="evenodd" d="M12.4324 12.4699L11.0028 12.7434C11.4408 11.5505 12.8901 11.0036 12.8901 11.0036C14.08 9.45307 16.3138 9.04296 16.3138 9.04296C16.024 8.44557 14.6466 7.72085 14.6466 7.72085C15.5227 7.75269 16.7192 8.77704 18.2186 8.95681C19.7179 8.77704 20.9144 7.75269 21.7905 7.72085C21.7905 7.72085 20.411 8.44557 20.1233 9.04296C20.1233 9.04296 22.3571 9.45307 23.547 11.0036C23.547 11.0036 24.9963 11.5505 25.4343 12.7434L24.0047 12.4699C24.8982 13.7377 26.84 18.382 25.3537 19.6329C25.3537 19.6329 25.4343 19.1722 24.5212 18.2865C24.5212 18.2865 25.1554 20.5206 23.17 23.352C23.17 23.352 23.3487 22.9419 23.2506 22.2266C23.2506 22.2266 21.7011 26.2172 18.2186 27C15.6295 26.558 14.3372 24.9382 14.3372 24.9382L14.736 25.8408C11.4343 22.8408 11.4692 21.6797 11.4801 21.2884L11.4212 23.2827C8.33748 19.4007 9.13076 16.3202 10.5669 13.9381C9.08064 14.1572 9.00218 14.2771 9 14.2939C9.04141 12.5542 10.8851 11.4812 10.8851 11.4812C9.31382 7.83508 12.0053 5.91747 16.2376 7.63845C17.6759 8.22273 18.7612 8.22273 20.1996 7.63845C24.4318 5.91747 27.1233 7.83508 25.552 11.4812C25.552 11.4812 27.3957 12.5542 27.4371 14.2939C27.4349 14.2771 27.3565 14.1572 25.8702 13.9381C27.3064 16.3202 28.0996 19.4007 25.0159 23.2827L24.957 21.2884C24.9679 21.6797 25.0028 22.8408 21.7011 25.8408L22.1 24.9382C22.1 24.9382 20.8076 26.558 18.2186 27C14.736 26.2172 13.1865 22.2266 13.1865 22.2266C13.0884 22.9419 13.2671 23.352 13.2671 23.352C11.2818 20.5206 11.9159 18.2865 11.9159 18.2865C11.0028 19.1722 11.0834 19.6329 11.0834 19.6329C9.59714 18.382 11.5389 13.7377 12.4324 12.4699ZM22.7494 9.8482C23.3051 9.92498 24.118 10.4793 24.118 10.4793C23.3923 11.0467 24.3882 11.101 24.8132 11.1872C25.7264 8.62909 24.118 7.9643 24.118 7.9643C22.939 7.61785 21.8973 8.40625 21.4963 8.76018C20.5483 9.59165 23.51 8.74707 24.2575 9.49052C23.8107 9.31075 23.4642 9.48303 23.4642 9.48303C23.9197 9.70401 24.1376 10.028 24.1376 10.028C23.7519 9.78079 22.7494 9.8482 22.7494 9.8482ZM13.6877 9.8482C13.132 9.92498 12.3191 10.4793 12.3191 10.4793C13.0448 11.0467 12.0467 11.101 11.6239 11.1872C10.7108 8.62909 12.3191 7.9643 12.3191 7.9643C13.4981 7.61785 14.5399 8.40625 14.9409 8.76018C15.8889 9.59165 12.9272 8.74707 12.1796 9.49052C12.6264 9.31075 12.9729 9.48303 12.9729 9.48303C12.5174 9.70401 12.2995 10.028 12.2995 10.028C12.6852 9.78079 13.6877 9.8482 13.6877 9.8482Z" fill="#0C0C0E"/>
<path d="M11.0028 12.7434L12.4324 12.4699C11.5389 13.7377 9.59714 18.382 11.0834 19.6329C11.0834 19.6329 11.0028 19.1722 11.9159 18.2865C11.9159 18.2865 11.2818 20.5206 13.2671 23.352C13.2671 23.352 13.0884 22.9419 13.1865 22.2266C13.1865 22.2266 14.736 26.2172 18.2186 27C21.7011 26.2172 23.2506 22.2266 23.2506 22.2266C23.3487 22.9419 23.17 23.352 23.17 23.352C25.1554 20.5206 24.5212 18.2865 24.5212 18.2865C25.4343 19.1722 25.3537 19.6329 25.3537 19.6329C26.84 18.382 24.8982 13.7377 24.0047 12.4699L25.4343 12.7434C24.9963 11.5505 23.547 11.0036 23.547 11.0036C22.3571 9.45307 20.1233 9.04296 20.1233 9.04296C20.411 8.44557 21.7905 7.72085 21.7905 7.72085C20.9144 7.75269 19.7179 8.77704 18.2186 8.95681C16.7192 8.77704 15.5227 7.75269 14.6466 7.72085C14.6466 7.72085 16.024 8.44557 16.3138 9.04296C16.3138 9.04296 14.08 9.45307 12.8901 11.0036C12.8901 11.0036 11.4408 11.5505 11.0028 12.7434Z" fill="white"/>
<path d="M22.7494 9.8482C23.3051 9.92498 24.118 10.4793 24.118 10.4793C23.3923 11.0467 24.3882 11.101 24.8132 11.1872C25.7264 8.62909 24.118 7.9643 24.118 7.9643C22.939 7.61785 21.8973 8.40625 21.4963 8.76018C20.5483 9.59165 23.51 8.74707 24.2575 9.49052C23.8107 9.31075 23.4642 9.48303 23.4642 9.48303C23.9197 9.70401 24.1376 10.028 24.1376 10.028C23.7519 9.78079 22.7494 9.8482 22.7494 9.8482Z" fill="white"/>
<path d="M13.6877 9.8482C13.132 9.92498 12.3191 10.4793 12.3191 10.4793C13.0448 11.0467 12.0467 11.101 11.6239 11.1872C10.7108 8.62909 12.3191 7.9643 12.3191 7.9643C13.4981 7.61785 14.5399 8.40625 14.9409 8.76018C15.8889 9.59165 12.9272 8.74707 12.1796 9.49052C12.6264 9.31075 12.9729 9.48303 12.9729 9.48303C12.5174 9.70401 12.2995 10.028 12.2995 10.028C12.6852 9.78079 13.6877 9.8482 13.6877 9.8482Z" fill="white"/>
<path fill-rule="evenodd" clip-rule="evenodd" d="M14.4616 12.3031C14.1173 12.2919 13.749 12.3144 13.3698 12.3762C13.5637 11.6945 14.2851 10.8612 14.7732 10.3574C14.7732 10.3574 13.4896 10.8256 12.9034 11.8986L13.1627 11.7975C12.6484 12.8125 12.2278 14.9342 12.7051 16.0429L12.8053 15.6178C12.8053 15.6178 12.9165 16.1009 13.3698 16.7189L13.3676 16.7151C12.5264 17.5822 13.895 18.2732 13.5724 19.6534C13.4133 20.3275 13.3458 21.438 14.1848 22.4193C13.9298 20.1346 15.4663 20.2938 15.4183 19.1571C15.2723 18.8799 15.1154 18.2002 15.0522 17.8462C14.9955 17.629 14.9694 17.4211 14.9672 17.2208C13.0254 15.9399 12.1624 13.4829 14.4616 12.3031Z" fill="#0C0C0E"/>
<path fill-rule="evenodd" clip-rule="evenodd" d="M14.4615 12.3032C13.7053 13.6984 15.573 13.4811 16.0982 14.1141C16.5079 14.6085 14.9606 15.6478 14.9671 17.2209C14.9693 17.4212 14.9955 17.6291 15.0521 17.8463C14.8255 16.5542 15.9609 15.616 16.5254 14.586C17.2533 13.2564 16.1353 12.3613 14.4615 12.3032Z" fill="#0C0C0E"/>
<path fill-rule="evenodd" clip-rule="evenodd" d="M21.9759 12.3031C22.3202 12.2919 22.6864 12.3144 23.0677 12.3762C22.8738 11.6945 22.1524 10.8612 21.6643 10.3574C21.6643 10.3574 22.9479 10.8256 23.5341 11.8986L23.2748 11.7975C23.7891 12.8125 24.2097 14.9342 23.7324 16.0429L23.6322 15.6178C23.6322 15.6178 23.521 16.1009 23.0677 16.7189L23.0699 16.7151C23.9111 17.5822 22.5425 18.2732 22.8651 19.6534C23.0241 20.3275 23.0917 21.438 22.2527 22.4193C22.5077 20.1346 20.9712 20.2938 21.0192 19.1571C21.1652 18.8799 21.3221 18.2002 21.3853 17.8462C21.442 17.629 21.4681 17.4211 21.4703 17.2208C23.4121 15.9399 24.2751 13.4829 21.9759 12.3031Z" fill="#0C0C0E"/>
<path fill-rule="evenodd" clip-rule="evenodd" d="M21.9757 12.3032C22.732 13.6984 20.8643 13.4811 20.3391 14.1141C19.9293 14.6085 21.4767 15.6478 21.4701 17.2209C21.4679 17.4212 21.4418 17.6291 21.3851 17.8463C21.6118 16.5542 20.4763 15.616 19.9119 14.586C19.184 13.2564 20.302 12.3613 21.9757 12.3032Z" fill="#0C0C0E"/>
<path fill-rule="evenodd" clip-rule="evenodd" d="M18.2184 17.5019C18.8396 17.1012 18.6325 16.56 20.0513 16.854C20.2234 16.3895 20.1384 15.8521 20.0207 15.4551C20.6004 16.1723 20.6811 17.206 19.7156 17.4083C18.5279 17.5525 18.8962 17.9532 18.2184 18.3128C17.5407 17.9532 17.909 17.5525 16.7212 17.4083C15.7558 17.206 15.8364 16.1723 16.414 15.4551C16.2985 15.8521 16.2135 16.3895 16.3856 16.854C17.8044 16.56 17.5973 17.1012 18.2184 17.5019Z" fill="#0C0C0E"/>
<path fill-rule="evenodd" clip-rule="evenodd" d="M21.4658 20.0975C21.4658 20.0975 21.6706 21.5394 19.9032 22.4945L19.8945 22.3241C19.8945 22.3241 19.2123 23.1687 18.2186 23.5432C17.2248 23.1687 16.5426 22.3241 16.5426 22.3241L16.5339 22.4945C14.7665 21.5394 14.9692 20.0975 14.9692 20.0975C15.0825 19.9833 14.7774 19.5731 14.8558 19.4477C14.9583 19.2866 15.4268 19.4009 15.4181 19.1574C15.5358 19.3821 15.708 19.6106 15.9608 19.7848C15.9608 19.7848 17.6192 19.6069 18.2186 18.7866C18.8179 19.6069 20.4763 19.7848 20.4763 19.7848C20.7291 19.6106 20.9013 19.3821 21.019 19.1574C21.0103 19.4009 21.4788 19.2866 21.5813 19.4477C21.6597 19.5731 21.3546 19.9833 21.4658 20.0975ZM18.2186 22.7511C18.6871 22.5807 19.293 21.3391 19.293 21.3391C19.3889 21.6069 19.2145 22.2436 19.2145 22.2436C19.8204 21.914 19.9293 21.2623 19.9293 21.2623C19.9337 21.4627 19.7898 21.8765 19.7898 21.8765C20.4981 21.6331 20.7052 20.7829 20.594 20.193C20.3347 19.9664 19.5327 19.8466 19.5327 19.8466C19.0707 19.7398 18.2186 19.3952 18.2186 19.3952C18.2186 19.3952 17.3664 19.7398 16.9044 19.8466C16.9044 19.8466 16.1024 19.9664 15.8431 20.193C15.7319 20.7829 15.9368 21.6331 16.6473 21.8765C16.6473 21.8765 16.5034 21.4627 16.5078 21.2623C16.5078 21.2623 16.6167 21.914 17.2226 22.2436C17.2226 22.2436 17.0482 21.6069 17.1441 21.3391C17.1441 21.3391 17.75 22.5807 18.2186 22.7511Z" fill="#0C0C0E"/>
<path fill-rule="evenodd" clip-rule="evenodd" d="M18.2187 10.9269C18.2187 10.9269 18.9945 10.6966 19.5306 10.5674C18.5107 11.0842 18.4519 11.7284 18.2187 12.5974C17.9855 11.7284 17.9267 11.0842 16.9067 10.5674C17.4429 10.6966 18.2187 10.9269 18.2187 10.9269Z" fill="#0C0C0E"/>
<g filter="url(#filter1_b_185_308)">
<mask id="path-49-inside-1_185_308" fill="white">
<path d="M2 19H34V33H2V19Z"/>
</mask>
<path d="M2 19H34V33H2V19Z" fill="white" fill-opacity="0.32"/>
<path d="M2 19.4H34V18.6H2V19.4Z" fill="url(#paint1_radial_185_308)" fill-opacity="0.5" mask="url(#path-49-inside-1_185_308)"/>
<path d="M15.6564 29.32C15.5204 29.276 15.4164 29.232 15.3444 29.188C15.2724 29.144 15.2364 29.088 15.2364 29.02C15.2364 28.94 15.2964 28.822 15.4164 28.666C15.8084 28.154 16.0844 27.732 16.2444 27.4C16.4084 27.064 16.4904 26.808 16.4904 26.632C16.4904 26.492 16.4504 26.398 16.3704 26.35C16.3224 26.318 16.2644 26.298 16.1964 26.29C16.1324 26.278 16.0624 26.272 15.9864 26.272C15.9104 26.272 15.8324 26.276 15.7524 26.284C15.6764 26.288 15.5984 26.294 15.5184 26.302C15.2504 26.542 15.0084 26.778 14.7924 27.01C14.5804 27.238 14.3964 27.452 14.2404 27.652C14.2364 27.656 14.2264 27.658 14.2104 27.658C14.1944 27.658 14.1904 27.652 14.1984 27.64C14.3664 27.404 14.5524 27.178 14.7564 26.962C14.9644 26.742 15.1684 26.528 15.3684 26.32C15.2804 26.332 15.2004 26.344 15.1284 26.356C15.0604 26.368 15.0044 26.378 14.9604 26.386C14.6684 26.718 14.4244 27.036 14.2284 27.34C14.2164 27.36 14.1884 27.41 14.1444 27.49C14.1004 27.566 14.0524 27.65 14.0004 27.742V27.754C14.0004 27.766 14.0064 27.772 14.0184 27.772C14.0384 27.772 14.0744 27.758 14.1264 27.73C14.1424 27.722 14.1504 27.718 14.1504 27.718C14.1584 27.718 14.1624 27.724 14.1624 27.736C14.1624 27.76 14.1524 27.782 14.1324 27.802C14.0964 27.85 14.0604 27.914 14.0244 27.994C13.9884 28.074 13.9544 28.148 13.9224 28.216C13.9024 28.244 13.8684 28.258 13.8204 28.258C13.7724 28.258 13.7244 28.24 13.6764 28.204C13.6324 28.168 13.6104 28.106 13.6104 28.018C13.6104 27.982 13.6344 27.916 13.6824 27.82C13.7344 27.724 13.8004 27.61 13.8804 27.478C13.9604 27.346 14.0484 27.208 14.1444 27.064C14.2404 26.916 14.3364 26.774 14.4324 26.638C14.4644 26.59 14.5224 26.516 14.6064 26.416C14.6944 26.312 14.7944 26.19 14.9064 26.05C15.0224 25.91 15.1384 25.762 15.2544 25.606C15.3744 25.446 15.4864 25.288 15.5904 25.132C15.6944 24.976 15.7784 24.83 15.8424 24.694C15.9064 24.558 15.9384 24.444 15.9384 24.352C15.9384 24.204 15.8484 24.13 15.6684 24.13C15.5284 24.13 15.3524 24.148 15.1404 24.184C14.9284 24.22 14.6944 24.27 14.4384 24.334C14.1824 24.394 13.9224 24.466 13.6584 24.55C13.3944 24.63 13.1404 24.718 12.8964 24.814C12.6524 24.906 12.4324 25.002 12.2364 25.102C12.0444 25.198 11.8944 25.294 11.7864 25.39C11.7184 25.45 11.6844 25.526 11.6844 25.618C11.6844 25.662 11.6984 25.702 11.7264 25.738C11.7544 25.77 11.8024 25.786 11.8704 25.786C11.8904 25.794 11.9004 25.802 11.9004 25.81C11.9004 25.814 11.8924 25.82 11.8764 25.828C11.8604 25.832 11.8424 25.832 11.8224 25.828C11.7904 25.82 11.7364 25.794 11.6604 25.75C11.5844 25.706 11.5144 25.654 11.4504 25.594C11.3864 25.53 11.3544 25.474 11.3544 25.426C11.3544 25.338 11.4304 25.244 11.5824 25.144C11.7384 25.044 11.9444 24.942 12.2004 24.838C12.4564 24.734 12.7404 24.636 13.0524 24.544C13.3684 24.448 13.6904 24.364 14.0184 24.292C14.3464 24.216 14.6564 24.156 14.9484 24.112C15.2444 24.068 15.4984 24.046 15.7104 24.046C15.8744 24.046 15.9984 24.06 16.0824 24.088C16.2264 24.136 16.2984 24.23 16.2984 24.37C16.2984 24.478 16.2624 24.606 16.1904 24.754C16.1224 24.898 16.0324 25.048 15.9204 25.204C15.8124 25.36 15.6984 25.512 15.5784 25.66C15.4584 25.808 15.3484 25.94 15.2484 26.056C15.1484 26.168 15.0724 26.252 15.0204 26.308C15.1084 26.292 15.1864 26.28 15.2544 26.272C15.3264 26.26 15.3864 26.25 15.4344 26.242C15.7424 25.93 16.0664 25.63 16.4064 25.342C16.7504 25.054 17.0984 24.796 17.4504 24.568C17.8024 24.336 18.1484 24.154 18.4884 24.022C18.8324 23.886 19.1564 23.818 19.4604 23.818C19.5884 23.818 19.7004 23.844 19.7964 23.896C19.8964 23.948 19.9644 24.006 20.0004 24.07C20.0204 24.098 20.0244 24.124 20.0124 24.148C20.0044 24.168 19.9924 24.164 19.9764 24.136C19.9364 24.056 19.8784 24 19.8024 23.968C19.7264 23.932 19.6384 23.914 19.5384 23.914C19.3624 23.914 19.1544 23.96 18.9144 24.052C18.6784 24.144 18.4264 24.264 18.1584 24.412C17.8944 24.56 17.6284 24.724 17.3604 24.904C17.0924 25.08 16.8404 25.256 16.6044 25.432C16.3684 25.604 16.1604 25.76 15.9804 25.9C15.8044 26.04 15.6744 26.148 15.5904 26.224C15.6664 26.216 15.7384 26.21 15.8064 26.206C15.8784 26.202 15.9464 26.2 16.0104 26.2C16.2464 26.2 16.4384 26.236 16.5864 26.308C16.7384 26.38 16.8144 26.516 16.8144 26.716C16.8144 26.84 16.7784 26.992 16.7064 27.172C16.6384 27.352 16.5264 27.568 16.3704 27.82C16.3304 27.888 16.2664 27.984 16.1784 28.108C16.0904 28.236 16.0024 28.368 15.9144 28.504C15.8264 28.636 15.7484 28.762 15.6804 28.882C15.6124 29.002 15.5784 29.09 15.5784 29.146C15.5784 29.214 15.6084 29.258 15.6684 29.278C15.6764 29.282 15.6784 29.29 15.6744 29.302C15.6744 29.318 15.6684 29.324 15.6564 29.32ZM18.2564 26.266C18.1964 26.242 18.1444 26.204 18.1004 26.152C18.0604 26.096 18.0464 26.036 18.0584 25.972C18.0664 25.936 18.0764 25.914 18.0884 25.906C18.1044 25.894 18.1464 25.886 18.2144 25.882L18.5324 25.828C18.5684 25.82 18.5864 25.82 18.5864 25.828C18.5864 25.844 18.5724 25.856 18.5444 25.864C18.4804 25.88 18.4244 25.904 18.3764 25.936C18.3284 25.968 18.2884 26.012 18.2564 26.068C18.2484 26.08 18.2444 26.098 18.2444 26.122C18.2444 26.146 18.2484 26.17 18.2564 26.194C18.2684 26.214 18.2804 26.232 18.2924 26.248C18.3044 26.264 18.3044 26.272 18.2924 26.272C18.2844 26.272 18.2724 26.27 18.2564 26.266ZM17.5544 28.084C17.4184 28.084 17.3224 28.042 17.2664 27.958C17.2144 27.87 17.1884 27.766 17.1884 27.646C17.1884 27.554 17.2004 27.46 17.2244 27.364C17.2524 27.268 17.2864 27.182 17.3264 27.106C17.2904 27.09 17.2784 27.076 17.2904 27.064C17.3184 27.024 17.3524 26.974 17.3924 26.914C17.4364 26.854 17.4804 26.794 17.5244 26.734C17.5764 26.666 17.6224 26.61 17.6624 26.566C17.7064 26.522 17.7524 26.5 17.8004 26.5C17.8324 26.5 17.8604 26.51 17.8844 26.53C17.9124 26.55 17.9404 26.57 17.9684 26.59C17.8764 26.686 17.7844 26.804 17.6924 26.944C17.6004 27.084 17.5244 27.232 17.4644 27.388C17.4084 27.54 17.3804 27.69 17.3804 27.838C17.3804 27.902 17.3944 27.948 17.4224 27.976C17.4544 28 17.4924 28.012 17.5364 28.012C17.6284 28.012 17.7104 27.98 17.7824 27.916C17.8584 27.848 17.9464 27.75 18.0464 27.622C18.1504 27.49 18.2484 27.352 18.3404 27.208C18.3644 27.176 18.3824 27.158 18.3944 27.154C18.4104 27.15 18.4124 27.158 18.4004 27.178C18.3684 27.242 18.3184 27.324 18.2504 27.424C18.1864 27.52 18.1184 27.616 18.0464 27.712C17.9744 27.808 17.9124 27.882 17.8604 27.934C17.8084 27.986 17.7544 28.024 17.6984 28.048C17.6464 28.072 17.5984 28.084 17.5544 28.084ZM17.1815 29.89C17.1255 29.89 17.0655 29.87 17.0015 29.83C16.9335 29.79 16.8775 29.74 16.8335 29.68C16.7855 29.624 16.7615 29.566 16.7615 29.506C16.7615 29.442 16.7975 29.362 16.8695 29.266C16.9415 29.17 17.0295 29.072 17.1335 28.972C17.2375 28.872 17.3415 28.78 17.4455 28.696C17.5455 28.612 17.6255 28.548 17.6855 28.504C17.8095 28.42 17.9235 28.348 18.0275 28.288C18.1355 28.228 18.2415 28.172 18.3455 28.12C18.4495 28.072 18.5775 28.018 18.7295 27.958C18.8815 27.894 19.0195 27.842 19.1435 27.802C19.1715 27.758 19.1995 27.69 19.2275 27.598C19.2595 27.506 19.2775 27.432 19.2815 27.376C19.2855 27.364 19.2875 27.352 19.2875 27.34C19.2875 27.328 19.2875 27.318 19.2875 27.31C19.2875 27.254 19.2735 27.22 19.2455 27.208C19.2215 27.196 19.1955 27.19 19.1675 27.19C19.1315 27.19 19.0775 27.216 19.0055 27.268C18.9375 27.32 18.8735 27.38 18.8135 27.448C18.8135 27.48 18.8115 27.506 18.8075 27.526C18.8035 27.546 18.7995 27.566 18.7955 27.586C18.7875 27.626 18.7715 27.656 18.7475 27.676C18.7235 27.696 18.7015 27.706 18.6815 27.706C18.6375 27.706 18.6155 27.68 18.6155 27.628C18.6155 27.608 18.6255 27.574 18.6455 27.526C18.6615 27.494 18.6915 27.444 18.7355 27.376C18.7795 27.308 18.8095 27.26 18.8255 27.232C18.8815 27.14 18.9235 27.042 18.9515 26.938C18.9835 26.834 18.9995 26.738 18.9995 26.65C18.9995 26.582 18.9875 26.518 18.9635 26.458C18.9395 26.394 18.8895 26.372 18.8135 26.392C18.7775 26.4 18.7335 26.442 18.6815 26.518C18.6335 26.594 18.5795 26.686 18.5195 26.794C18.4635 26.898 18.4055 27.004 18.3455 27.112C18.2815 27.224 18.2215 27.326 18.1655 27.418C18.1095 27.506 18.0595 27.574 18.0155 27.622C17.9915 27.646 17.9775 27.658 17.9735 27.658C17.9655 27.658 17.9615 27.652 17.9615 27.64C17.9655 27.624 17.9715 27.61 17.9795 27.598C18.0715 27.49 18.1575 27.356 18.2375 27.196C18.3175 27.036 18.3895 26.894 18.4535 26.77C18.5295 26.618 18.5955 26.504 18.6515 26.428C18.7075 26.348 18.7795 26.308 18.8675 26.308C18.9715 26.308 19.0435 26.334 19.0835 26.386C19.1235 26.438 19.1435 26.504 19.1435 26.584C19.1435 26.672 19.1215 26.768 19.0775 26.872C19.0375 26.976 18.9935 27.062 18.9455 27.13C18.9095 27.178 18.8755 27.236 18.8435 27.304C18.8115 27.372 18.7955 27.406 18.7955 27.406C18.9035 27.282 18.9955 27.194 19.0715 27.142C19.1515 27.09 19.2235 27.064 19.2875 27.064C19.3195 27.064 19.3555 27.074 19.3955 27.094C19.4275 27.11 19.4495 27.138 19.4615 27.178C19.4775 27.218 19.4855 27.262 19.4855 27.31C19.4855 27.362 19.4795 27.418 19.4675 27.478C19.4595 27.534 19.4475 27.584 19.4315 27.628C19.4195 27.676 19.4055 27.718 19.3895 27.754C19.3775 27.786 19.3675 27.808 19.3595 27.82C19.4675 27.836 19.5475 27.88 19.5995 27.952C19.6555 28.02 19.6835 28.1 19.6835 28.192C19.6835 28.208 19.6835 28.224 19.6835 28.24C19.6835 28.256 19.6815 28.272 19.6775 28.288C19.6735 28.316 19.6615 28.328 19.6415 28.324C19.6255 28.324 19.6195 28.312 19.6235 28.288C19.6315 28.184 19.6175 28.092 19.5815 28.012C19.5455 27.936 19.4595 27.898 19.3235 27.898C19.2515 28.038 19.1555 28.196 19.0355 28.372C18.9195 28.548 18.7855 28.724 18.6335 28.9C18.4855 29.08 18.3275 29.244 18.1595 29.392C17.9955 29.544 17.8295 29.664 17.6615 29.752C17.4935 29.844 17.3335 29.89 17.1815 29.89ZM17.1155 29.776C17.2115 29.776 17.3415 29.73 17.5055 29.638C17.6215 29.574 17.7455 29.484 17.8775 29.368C18.0095 29.252 18.1395 29.122 18.2675 28.978C18.3995 28.838 18.5215 28.698 18.6335 28.558C18.7495 28.418 18.8475 28.288 18.9275 28.168C19.0075 28.052 19.0635 27.962 19.0955 27.898C18.9875 27.922 18.8535 27.968 18.6935 28.036C18.5335 28.104 18.3635 28.19 18.1835 28.294C18.0075 28.402 17.8355 28.522 17.6675 28.654C17.4995 28.786 17.3515 28.926 17.2235 29.074C17.1515 29.162 17.0915 29.254 17.0435 29.35C16.9915 29.45 16.9655 29.538 16.9655 29.614C16.9655 29.722 17.0155 29.776 17.1155 29.776ZM18.8573 29.89C18.8013 29.89 18.7413 29.87 18.6773 29.83C18.6093 29.79 18.5533 29.74 18.5093 29.68C18.4613 29.624 18.4373 29.566 18.4373 29.506C18.4373 29.442 18.4733 29.362 18.5453 29.266C18.6173 29.17 18.7053 29.072 18.8093 28.972C18.9133 28.872 19.0173 28.78 19.1213 28.696C19.2213 28.612 19.3013 28.548 19.3613 28.504C19.4853 28.42 19.5993 28.348 19.7033 28.288C19.8113 28.228 19.9173 28.172 20.0213 28.12C20.1253 28.072 20.2533 28.018 20.4053 27.958C20.5573 27.894 20.6953 27.842 20.8193 27.802C20.8473 27.758 20.8753 27.69 20.9033 27.598C20.9353 27.506 20.9533 27.432 20.9573 27.376C20.9613 27.364 20.9633 27.352 20.9633 27.34C20.9633 27.328 20.9633 27.318 20.9633 27.31C20.9633 27.254 20.9493 27.22 20.9213 27.208C20.8973 27.196 20.8713 27.19 20.8433 27.19C20.8073 27.19 20.7533 27.216 20.6813 27.268C20.6133 27.32 20.5493 27.38 20.4893 27.448C20.4893 27.48 20.4873 27.506 20.4833 27.526C20.4793 27.546 20.4753 27.566 20.4713 27.586C20.4633 27.626 20.4473 27.656 20.4233 27.676C20.3993 27.696 20.3773 27.706 20.3573 27.706C20.3133 27.706 20.2913 27.68 20.2913 27.628C20.2913 27.608 20.3013 27.574 20.3213 27.526C20.3373 27.494 20.3673 27.444 20.4113 27.376C20.4553 27.308 20.4853 27.26 20.5013 27.232C20.5573 27.14 20.5993 27.042 20.6273 26.938C20.6593 26.834 20.6753 26.738 20.6753 26.65C20.6753 26.582 20.6633 26.518 20.6393 26.458C20.6153 26.394 20.5653 26.372 20.4893 26.392C20.4533 26.4 20.4093 26.442 20.3573 26.518C20.3093 26.594 20.2553 26.686 20.1953 26.794C20.1393 26.898 20.0813 27.004 20.0213 27.112C19.9573 27.224 19.8973 27.326 19.8413 27.418C19.7853 27.506 19.7353 27.574 19.6913 27.622C19.6673 27.646 19.6533 27.658 19.6493 27.658C19.6413 27.658 19.6373 27.652 19.6373 27.64C19.6413 27.624 19.6473 27.61 19.6553 27.598C19.7473 27.49 19.8333 27.356 19.9133 27.196C19.9933 27.036 20.0653 26.894 20.1293 26.77C20.2053 26.618 20.2713 26.504 20.3273 26.428C20.3833 26.348 20.4553 26.308 20.5433 26.308C20.6473 26.308 20.7193 26.334 20.7593 26.386C20.7993 26.438 20.8193 26.504 20.8193 26.584C20.8193 26.672 20.7973 26.768 20.7533 26.872C20.7133 26.976 20.6693 27.062 20.6213 27.13C20.5853 27.178 20.5513 27.236 20.5193 27.304C20.4873 27.372 20.4713 27.406 20.4713 27.406C20.5793 27.282 20.6713 27.194 20.7473 27.142C20.8273 27.09 20.8993 27.064 20.9633 27.064C20.9953 27.064 21.0313 27.074 21.0713 27.094C21.1033 27.11 21.1253 27.138 21.1373 27.178C21.1533 27.218 21.1613 27.262 21.1613 27.31C21.1613 27.362 21.1553 27.418 21.1433 27.478C21.1353 27.534 21.1233 27.584 21.1073 27.628C21.0953 27.676 21.0813 27.718 21.0653 27.754C21.0533 27.786 21.0433 27.808 21.0353 27.82C21.1433 27.836 21.2233 27.88 21.2753 27.952C21.3313 28.02 21.3593 28.1 21.3593 28.192C21.3593 28.208 21.3593 28.224 21.3593 28.24C21.3593 28.256 21.3573 28.272 21.3533 28.288C21.3493 28.316 21.3373 28.328 21.3173 28.324C21.3013 28.324 21.2953 28.312 21.2993 28.288C21.3073 28.184 21.2933 28.092 21.2573 28.012C21.2213 27.936 21.1353 27.898 20.9993 27.898C20.9273 28.038 20.8313 28.196 20.7113 28.372C20.5953 28.548 20.4613 28.724 20.3093 28.9C20.1613 29.08 20.0033 29.244 19.8353 29.392C19.6713 29.544 19.5053 29.664 19.3373 29.752C19.1693 29.844 19.0093 29.89 18.8573 29.89ZM18.7913 29.776C18.8873 29.776 19.0173 29.73 19.1813 29.638C19.2973 29.574 19.4213 29.484 19.5533 29.368C19.6853 29.252 19.8153 29.122 19.9433 28.978C20.0753 28.838 20.1973 28.698 20.3093 28.558C20.4253 28.418 20.5233 28.288 20.6033 28.168C20.6833 28.052 20.7393 27.962 20.7713 27.898C20.6633 27.922 20.5293 27.968 20.3693 28.036C20.2093 28.104 20.0393 28.19 19.8593 28.294C19.6833 28.402 19.5113 28.522 19.3433 28.654C19.1753 28.786 19.0273 28.926 18.8993 29.074C18.8273 29.162 18.7673 29.254 18.7193 29.35C18.6673 29.45 18.6413 29.538 18.6413 29.614C18.6413 29.722 18.6913 29.776 18.7913 29.776ZM22.2491 30.088C22.1571 30.088 22.0671 30.08 21.9791 30.064C21.8911 30.048 21.8131 30.022 21.7451 29.986C21.6891 29.958 21.6331 29.916 21.5771 29.86C21.5131 29.796 21.4811 29.716 21.4811 29.62C21.4811 29.504 21.5391 29.372 21.6551 29.224C21.7711 29.076 21.9631 28.928 22.2311 28.78C22.3711 28.7 22.5351 28.626 22.7231 28.558C22.9151 28.49 23.1191 28.43 23.3351 28.378C23.5551 28.326 23.7731 28.284 23.9891 28.252C24.2091 28.224 24.4151 28.21 24.6071 28.21C24.6511 28.21 24.6731 28.218 24.6731 28.234C24.6731 28.25 24.6571 28.258 24.6251 28.258C24.4811 28.27 24.3091 28.294 24.1091 28.33C23.9131 28.366 23.7091 28.412 23.4971 28.468C23.2851 28.528 23.0791 28.594 22.8791 28.666C22.6831 28.738 22.5131 28.816 22.3691 28.9C22.1251 29.04 21.9451 29.176 21.8291 29.308C21.7131 29.44 21.6551 29.558 21.6551 29.662C21.6551 29.754 21.6971 29.83 21.7811 29.89C21.8691 29.95 22.0091 29.98 22.2011 29.98C22.4411 29.98 22.6751 29.936 22.9031 29.848C23.1311 29.76 23.3471 29.644 23.5511 29.5C23.7591 29.356 23.9511 29.194 24.1271 29.014C24.3031 28.838 24.4611 28.66 24.6011 28.48C24.7931 28.232 24.9591 27.98 25.0991 27.724C25.2391 27.464 25.3471 27.214 25.4231 26.974C25.5031 26.734 25.5431 26.524 25.5431 26.344C25.5431 26.248 25.5311 26.162 25.5071 26.086C25.4871 26.01 25.4511 25.946 25.3991 25.894C25.2631 26.062 25.1071 26.244 24.9311 26.44C24.7591 26.632 24.5811 26.822 24.3971 27.01C24.2171 27.198 24.0471 27.368 23.8871 27.52C23.7271 27.672 23.5931 27.788 23.4851 27.868C23.4211 27.916 23.3491 27.96 23.2691 28C23.1931 28.04 23.1191 28.06 23.0471 28.06C22.9231 28.06 22.8231 28.01 22.7471 27.91C22.6711 27.81 22.6391 27.704 22.6511 27.592C22.6631 27.464 22.7071 27.32 22.7831 27.16C22.8631 27 22.9571 26.836 23.0651 26.668C23.1731 26.5 23.2811 26.342 23.3891 26.194C23.5011 26.046 23.5951 25.92 23.6711 25.816C23.7871 25.664 23.9131 25.508 24.0491 25.348C24.1851 25.184 24.2971 25.038 24.3851 24.91C24.4771 24.782 24.5391 24.676 24.5711 24.592C24.5751 24.58 24.5771 24.57 24.5771 24.562C24.5811 24.55 24.5831 24.54 24.5831 24.532C24.5831 24.492 24.5691 24.464 24.5411 24.448C24.5171 24.428 24.4891 24.418 24.4571 24.418C24.3651 24.418 24.2491 24.442 24.1091 24.49C23.9691 24.534 23.8191 24.594 23.6591 24.67C23.4991 24.742 23.3411 24.822 23.1851 24.91C23.0331 24.998 22.8951 25.082 22.7711 25.162C22.6951 25.214 22.5971 25.294 22.4771 25.402C22.3611 25.506 22.2431 25.626 22.1231 25.762C22.0071 25.894 21.9091 26.03 21.8291 26.17C21.7491 26.31 21.7091 26.438 21.7091 26.554C21.7091 26.626 21.7271 26.69 21.7631 26.746C21.7831 26.774 21.7851 26.792 21.7691 26.8C21.7571 26.804 21.7451 26.798 21.7331 26.782C21.7051 26.75 21.6751 26.704 21.6431 26.644C21.6151 26.584 21.5911 26.522 21.5711 26.458C21.5551 26.394 21.5491 26.344 21.5531 26.308C21.5771 26.1 21.6851 25.888 21.8771 25.672C22.0691 25.452 22.3111 25.244 22.6031 25.048C22.6511 25.016 22.7291 24.97 22.8371 24.91C22.9451 24.85 23.0651 24.786 23.1971 24.718C23.3331 24.646 23.4691 24.578 23.6051 24.514C23.7451 24.45 23.8731 24.398 23.9891 24.358C24.1051 24.318 24.1951 24.298 24.2591 24.298C24.3071 24.298 24.3671 24.304 24.4391 24.316C24.5151 24.324 24.5891 24.34 24.6611 24.364C24.7371 24.388 24.7991 24.42 24.8471 24.46C24.8951 24.5 24.9151 24.55 24.9071 24.61C24.8911 24.698 24.8531 24.79 24.7931 24.886C24.7371 24.982 24.6631 25.084 24.5711 25.192C24.4831 25.3 24.3811 25.414 24.2651 25.534C24.1491 25.65 24.0331 25.772 23.9171 25.9C23.7611 26.068 23.6091 26.248 23.4611 26.44C23.3131 26.632 23.1871 26.832 23.0831 27.04C22.9831 27.248 22.9191 27.466 22.8911 27.694C22.8871 27.706 22.8851 27.718 22.8851 27.73C22.8851 27.742 22.8851 27.754 22.8851 27.766C22.8851 27.842 22.8991 27.896 22.9271 27.928C22.9591 27.96 22.9971 27.976 23.0411 27.976C23.0891 27.976 23.1451 27.96 23.2091 27.928C23.2731 27.896 23.3351 27.858 23.3951 27.814C23.4551 27.77 23.5031 27.732 23.5391 27.7C23.7151 27.556 23.8771 27.402 24.0251 27.238C24.1771 27.074 24.3331 26.914 24.4931 26.758C24.6331 26.618 24.7751 26.476 24.9191 26.332C25.0671 26.184 25.2171 26.03 25.3691 25.87C25.2851 25.822 25.1971 25.798 25.1051 25.798C25.0731 25.798 25.0571 25.794 25.0571 25.786C25.0571 25.778 25.0771 25.77 25.1171 25.762C25.1291 25.758 25.1471 25.756 25.1711 25.756C25.2151 25.756 25.2591 25.762 25.3031 25.774C25.3471 25.786 25.3831 25.8 25.4111 25.816C25.4271 25.804 25.4411 25.788 25.4531 25.768C25.4691 25.744 25.4811 25.726 25.4891 25.714C25.5011 25.694 25.5111 25.688 25.5191 25.696C25.5311 25.704 25.5331 25.714 25.5251 25.726C25.5091 25.746 25.4951 25.764 25.4831 25.78C25.4751 25.792 25.4611 25.81 25.4411 25.834C25.5611 25.934 25.6491 26.052 25.7051 26.188C25.7611 26.32 25.7891 26.462 25.7891 26.614C25.7891 26.826 25.7431 27.052 25.6511 27.292C25.5631 27.528 25.4431 27.766 25.2911 28.006C25.1391 28.25 24.9691 28.48 24.7811 28.696C24.5691 28.944 24.3311 29.166 24.0671 29.362C23.8071 29.562 23.5391 29.724 23.2631 29.848C22.9871 29.972 22.7191 30.048 22.4591 30.076C22.4271 30.08 22.3931 30.082 22.3571 30.082C22.3211 30.086 22.2851 30.088 22.2491 30.088Z" fill="#010101"/>
</g>
</g>
<rect x="2.15" y="1.15" width="31.7" height="31.7" rx="7.85" stroke="#D0D5DD" stroke-width="0.3"/>
</g>
<defs>
<filter id="filter0_d_185_308" x="0" y="0" width="36" height="36" filterUnits="userSpaceOnUse" color-interpolation-filters="sRGB">
<feFlood flood-opacity="0" result="BackgroundImageFix"/>
<feColorMatrix in="SourceAlpha" type="matrix" values="0 0 0 0 0 0 0 0 0 0 0 0 0 0 0 0 0 0 127 0" result="hardAlpha"/>
<feOffset dy="1"/>
<feGaussianBlur stdDeviation="1"/>
<feColorMatrix type="matrix" values="0 0 0 0 0.0627451 0 0 0 0 0.0941176 0 0 0 0 0.156863 0 0 0 0.05 0"/>
<feBlend mode="normal" in2="BackgroundImageFix" result="effect1_dropShadow_185_308"/>
<feBlend mode="normal" in="SourceGraphic" in2="effect1_dropShadow_185_308" result="shape"/>
</filter>
<filter id="filter1_b_185_308" x="1" y="18" width="34" height="16" filterUnits="userSpaceOnUse" color-interpolation-filters="sRGB">
<feFlood flood-opacity="0" result="BackgroundImageFix"/>
<feGaussianBlur in="BackgroundImageFix" stdDeviation="0.5"/>
<feComposite in2="SourceAlpha" operator="in" result="effect1_backgroundBlur_185_308"/>
<feBlend mode="normal" in="SourceGraphic" in2="effect1_backgroundBlur_185_308" result="shape"/>
</filter>
<linearGradient id="paint0_linear_185_308" x1="18" y1="1" x2="18" y2="33" gradientUnits="userSpaceOnUse">
<stop offset="0.258752" stop-color="white"/>
<stop offset="0.749542" stop-color="#D0D5DD"/>
</linearGradient>
<radialGradient id="paint1_radial_185_308" cx="0" cy="0" r="1" gradientUnits="userSpaceOnUse" gradientTransform="translate(18 26) rotate(180) scale(16 36.5714)">
<stop stop-color="#D7D7D7"/>
<stop offset="0.5" stop-color="white"/>
<stop offset="1" stop-color="#D7D7D7"/>
</radialGradient>
<clipPath id="clip0_185_308">
<rect x="2" y="1" width="32" height="32" rx="8" fill="white"/>
</clipPath>
<clipPath id="clip1_185_308">
<rect width="32" height="32" fill="white" transform="translate(2 1)"/>
</clipPath>
</defs>
</svg>
